# xmcd
#
# Track frame offsets: 
#        150
#        18214
#        40988
#        59335
#        77759
#        99462
#        114535
#        125771
#        140213
#        158971
#        177638
#        196765
#        212256
#        227819
#        244054
#        258498
#        277415
#
# Disc length: 3898 seconds
#
# Revision: 0
# Processed by: cddbd v1.5.2PL0 Copyright (c) Steve Scherf et al.
# Submitted via: ExactAudioCopy v0.99pb4
#
DISCID=fb0f3811
DTITLE=Nana Mouskouri - Les 50 Plus Belles Chansons - Disque 3
DYEAR=2007
DGENRE=Ballad
TTITLE0=Je Chante Avec Toi Liberté
TTITLE1=Prisonnier Dans L'Ile
TTITLE2=Je Reviens Chez Nous
TTITLE3=Le Temps Qu'Il Nous Reste
TTITLE4=Aranjuez Mon Amour
TTITLE5=Les Parapluies De Cherbourg
TTITLE6=C'Est Bon La Vie
TTITLE7=L'Histoire De Nous
TTITLE8=Suzanne
TTITLE9=Le Vent De L'Espoir
TTITLE10=Fille Du Soleil
TTITLE11=Plaisir D'Amour
TTITLE12=Romance De Maitre Pathelin
TTITLE13=Tous Les Arbres Sont En Fleurs
TTITLE14=L'Amour De Moy
TTITLE15=Franz
TTITLE16=Les Mauvais Souvenirs
EXTD=
EXTT0=
EXTT1=
EXTT2=
EXTT3=
EXTT4=
EXTT5=
EXTT6=
EXTT7=
EXTT8=
EXTT9=
EXTT10=
EXTT11=
EXTT12=
EXTT13=
EXTT14=
EXTT15=
EXTT16=
PLAYORDER=
